HIERARCHY
ROOT root
{
	OFFSET	0	13.1	24.9
	CHANNELS 6  Xposition Yposition Zposition Xrotation Yrotation Zrotation
	JOINT spine_1
	{
		OFFSET	0	9.99999	0
		CHANNELS 3  Xrotation Yrotation Zrotation
		JOINT spine_2
		{
			OFFSET	0	112	-10
			CHANNELS 3  Xrotation Yrotation Zrotation
			JOINT spine_3
			{
				OFFSET	0	206.5	19.3
				CHANNELS 3  Xrotation Yrotation Zrotation
				JOINT spine_4
				{
					OFFSET	0	110.4	14.6
					CHANNELS 3  Xrotation Yrotation Zrotation
					JOINT neck_1
					{
						OFFSET	0	71.8	-50.3
						CHANNELS 3  Xrotation Yrotation Zrotation
						JOINT neck_2
						{
							OFFSET	0	86.2	-25.8
							CHANNELS 3  Xrotation Yrotation Zrotation
							JOINT head_ee
							{
								OFFSET	0	179.8	-8.7
								CHANNELS 3  Xrotation Yrotation Zrotation
								End Site
								{
									OFFSET	1	0	0
								}
							}
						}
					}
					JOINT left_clavicle
					{
						OFFSET	-43.2	22.4	-70.8
						CHANNELS 3  Xrotation Yrotation Zrotation
						JOINT left_shoulder
						{
							OFFSET	-93.9	-5.79999	48.7
							CHANNELS 3  Xrotation Yrotation Zrotation
							JOINT left_elbow
							{
								OFFSET	-291.4	-30.8	15.2
								CHANNELS 3  Xrotation Yrotation Zrotation
								JOINT left_lowarm_twist
								{
									OFFSET	-110.7	-3.89999	13.6
									CHANNELS 3  Xrotation Yrotation Zrotation
									JOINT left_hand
									{
										OFFSET	-110.7	-3.89999	13.6
										CHANNELS 3  Xrotation Yrotation Zrotation
										JOINT left_ee
										{
											OFFSET	-80.8	-5.10001	12.1
											CHANNELS 3  Xrotation Yrotation Zrotation
											End Site
											{
												OFFSET	1	0	0
											}
										}
									}
								}
							}
						}
					}
					JOINT right_clavicle
					{
						OFFSET	43.2	22.4	-70.8
						CHANNELS 3  Xrotation Yrotation Zrotation
						JOINT right_shoulder
						{
							OFFSET	93.9	-5.79999	48.7
							CHANNELS 3  Xrotation Yrotation Zrotation
							JOINT right_elbow
							{
								OFFSET	291.4	-30.8	15.2
								CHANNELS 3  Xrotation Yrotation Zrotation
								JOINT right_lowarm_twist
								{
									OFFSET	110.7	-3.89999	13.6
									CHANNELS 3  Xrotation Yrotation Zrotation
									JOINT right_hand
									{
										OFFSET	110.7	-3.89999	13.6
										CHANNELS 3  Xrotation Yrotation Zrotation
										JOINT right_ee
										{
											OFFSET	80.8	-5.10001	12.1
											CHANNELS 3  Xrotation Yrotation Zrotation
											End Site
											{
												OFFSET	1	0	0
											}
										}
									}
								}
							}
						}
					}
				}
			}
		}
	}
	JOINT left_hip
	{
		OFFSET	-82.8	-127.5	0.300001
		CHANNELS 3  Xrotation Yrotation Zrotation
		JOINT left_knee
		{
			OFFSET	-28.2	-396.7	2.2
			CHANNELS 3  Xrotation Yrotation Zrotation
			JOINT left_ankle
			{
				OFFSET	-11.7	-411.3	35.4
				CHANNELS 3  Xrotation Yrotation Zrotation
				JOINT left_toes
				{
					OFFSET	0	-60	-88.6
					CHANNELS 3  Xrotation Yrotation Zrotation
					JOINT left_foot_ee
					{
						OFFSET	-22.5	-16.5	-42.2
						CHANNELS 3  Xrotation Yrotation Zrotation
						End Site
						{
							OFFSET	1	0	0
						}
					}
				}
			}
		}
	}
	JOINT right_hip
	{
		OFFSET	82.8	-127.5	0.300001
		CHANNELS 3  Xrotation Yrotation Zrotation
		JOINT right_knee
		{
			OFFSET	28.2	-396.7	2.2
			CHANNELS 3  Xrotation Yrotation Zrotation
			JOINT right_ankle
			{
				OFFSET	11.7	-411.3	35.4
				CHANNELS 3  Xrotation Yrotation Zrotation
				JOINT right_toes
				{
					OFFSET	0	-60	-88.6
					CHANNELS 3  Xrotation Yrotation Zrotation
					JOINT right_foot_ee
					{
						OFFSET	22.5	-16.5	-42.2
						CHANNELS 3  Xrotation Yrotation Zrotation
						End Site
						{
							OFFSET	1	0	0
						}
					}
				}
			}
		}
	}
}
MOTION
Frames: 6
Frame Time: 0.02
1372.05 701.618 -1475.22 10.1225529398 50.0039884402 -7.55111506885 -5.5179 -0.208546 -2.41951 -5.51465 -0.0542095 -2.42787 -5.50643 0.684396 -2.3301 -5.51388 0.307924 -2.40889 2.16812 5.63855 6.83548 2.28531 4.10551 7.99204 -0.0 0.0 -0.0 10.7338 -8.81427 21.4506 -2.15225 -35.9307 47.6387 3.56665 -60.4753 2.07942 -45.7208 -3.57907 4.4406 -2.82843 6.301 -16.0586 -0.0 0.0 -0.0 7.02978 -7.82017 -13.5171 -14.269 7.48209 -54.4711 0.781455 21.1618 -0.145978 61.0524 1.86852 7.20416 -2.94352 -28.5993 4.73249 0.0 0.0 0.0 -19.4711 -23.2839 2.28201 -18.0881 0.313495 2.74656 31.8492 26.9863 -4.37248 34.9597 -0.0 -0.0 -0.0 0.0 -0.0 28.2061 -37.0151 13.2886 -8.62309 -0.257836 -1.29702 -11.9393 28.7485 -2.24824 16.0143 -0.0 -0.0 0.0 0.0 0.0 
1356.84365193 702.446 -1500.75479202 9.43922052991 51.7214303956 -7.50004826171 -5.42233 -0.201592 -2.41083 -5.41909 -0.0478222 -2.41876 -5.41129 0.683869 -2.32062 -5.41867 0.308899 -2.39945 2.00328 5.76888 7.48522 2.14325 3.80779 8.7142 -0.0 0.0 -0.0 10.4992 -8.67821 20.9353 -3.76311 -35.4291 49.0525 3.3537 -58.9412 1.89553 -44.9699 -3.49454 4.39432 -2.66125 6.57306 -14.7841 -0.0 0.0 -0.0 7.1858 -7.14036 -13.8279 -14.6038 8.00985 -54.0812 0.774426 20.9881 -0.14345 61.1669 1.87891 7.21452 -2.9345 -28.1872 4.91091 0.0 0.0 0.0 -18.141 -24.121 2.09252 -21.4892 0.274969 3.26692 29.5446 27.667 -4.12393 35.0719 -0.0 -0.0 -0.0 0.0 -0.0 27.3677 -37.4716 12.6836 -8.69942 -0.259242 -1.30865 -8.52324 27.9465 -1.57996 16.7581 -0.0 -0.0 0.0 0.0 0.0 
1357.10470424 702.446 -1500.90845577 9.31985243325 51.1452424877 -7.3473828252 -5.42233 -0.201592 -2.41083 -5.41909 -0.0478222 -2.41876 -5.41129 0.683869 -2.32062 -5.41867 0.308899 -2.39945 2.00328 5.76888 7.48522 2.14325 3.80779 8.7142 -0.0 0.0 -0.0 10.4992 -8.67821 20.9353 -3.76311 -35.4291 49.0525 3.3537 -58.9412 1.89553 -44.9699 -3.49454 4.39432 -2.66125 6.57306 -14.7841 -0.0 0.0 -0.0 7.1858 -7.14036 -13.8279 -14.6038 8.00985 -54.0812 0.774426 20.9881 -0.14345 61.1669 1.87891 7.21452 -2.9345 -28.1872 4.91091 0.0 0.0 0.0 -18.141 -24.121 2.09252 -21.4892 0.274969 3.26692 29.5446 27.667 -4.12393 35.0719 -0.0 -0.0 -0.0 0.0 -0.0 27.3677 -37.4716 12.6836 -8.69942 -0.259242 -1.30865 -8.52324 27.9465 -1.57996 16.7581 -0.0 -0.0 0.0 0.0 0.0 
1357.32128679 702.446 -1501.03324528 9.22428539181 50.6696440241 -7.2242508638 -5.42233 -0.201592 -2.41083 -5.41909 -0.0478222 -2.41876 -5.41129 0.683869 -2.32062 -5.41867 0.308899 -2.39945 2.00328 5.76888 7.48522 2.14325 3.80779 8.7142 -0.0 0.0 -0.0 10.4992 -8.67821 20.9353 -3.76311 -35.4291 49.0525 3.3537 -58.9412 1.89553 -44.9699 -3.49454 4.39432 -2.66125 6.57306 -14.7841 -0.0 0.0 -0.0 7.1858 -7.14036 -13.8279 -14.6038 8.00985 -54.0812 0.774426 20.9881 -0.14345 61.1669 1.87891 7.21452 -2.9345 -28.1872 4.91091 0.0 0.0 0.0 -18.141 -24.121 2.09252 -21.4892 0.274969 3.26692 29.5446 27.667 -4.12393 35.0719 -0.0 -0.0 -0.0 0.0 -0.0 27.3677 -37.4716 12.6836 -8.69942 -0.259242 -1.30865 -8.52324 27.9465 -1.57996 16.7581 -0.0 -0.0 0.0 0.0 0.0 
1328.76963281 708.624 -1535.33772417 12.1514637542 52.6997925021 -10.1943141121 -5.57417 -0.604079 -2.52819 -5.57072 -0.442033 -2.56148 -5.5432 0.356667 -2.57475 -5.55245 -0.0542997 -2.59875 3.15422 4.8611 4.02087 3.20379 5.02084 4.82523 -0.0 0.0 -0.0 10.9838 -8.54269 22.0006 -6.92043 -31.1869 51.0458 2.92768 -55.4021 1.53738 -42.4353 -3.2138 4.23003 -2.36402 7.46009 -12.3429 -0.0 0.0 -0.0 7.31621 -6.03536 -14.1078 -11.9828 11.4467 -51.7353 0.695989 19.0228 -0.116613 59.5671 1.73554 7.06785 -3.24558 -26.8698 7.36352 0.0 0.0 0.0 -14.5218 -23.172 2.5858 -33.7388 -0.117199 5.10239 19.5766 27.5081 -2.85569 35.6599 -0.0 -0.0 -0.0 0.0 -0.0 26.0822 -36.8791 13.3672 -13.6231 -0.317095 -2.06169 -1.24293 20.6018 -0.208702 16.5828 -0.0 -0.0 0.0 0.0 0.0 
1329.53521942 708.624 -1535.881556 11.9548977238 51.9894494877 -9.94603540404 -5.57417 -0.604079 -2.52819 -5.57072 -0.442033 -2.56148 -5.5432 0.356667 -2.57475 -5.55245 -0.0542997 -2.59875 3.15422 4.8611 4.02087 3.20379 5.02084 4.82523 -0.0 0.0 -0.0 10.9838 -8.54269 22.0006 -6.92043 -31.1869 51.0458 2.92768 -55.4021 1.53738 -42.4353 -3.2138 4.23003 -2.36402 7.46009 -12.3429 -0.0 0.0 -0.0 7.31621 -6.03536 -14.1078 -11.9828 11.4467 -51.7353 0.695989 19.0228 -0.116613 59.5671 1.73554 7.06785 -3.24558 -26.8698 7.36352 0.0 0.0 0.0 -14.5218 -23.172 2.5858 -33.7388 -0.117199 5.10239 19.5766 27.5081 -2.85569 35.6599 -0.0 -0.0 -0.0 0.0 -0.0 26.0822 -36.8791 13.3672 -13.6231 -0.317095 -2.06169 -1.24293 20.6018 -0.208702 16.5828 -0.0 -0.0 0.0 0.0 0.0 
